<svg xmlns="http://www.w3.org/2000/svg" viewBox="0 0 64 64" role="img" aria-label="Pomodoro Timer icon">
  <defs>
    <linearGradient id="body" x1="0" y1="0" x2="1" y2="1">
      <stop offset="0%" stop-color="#ff9b6b" />
      <stop offset="100%" stop-color="#dd6b42" />
    </linearGradient>
  </defs>
  <path d="M26 12c2.3-6 8.3-8 13-7-1.8 2.8-3.2 5.4-2.3 8.4l2 .8c-1.4 1.1-2.2 2.2-2.7 3.8h-7.7c-.5-1.6-1.3-2.7-2.3-3.5Z" fill="#3f7b43"/>
  <path d="M32 16c-13.3 0-24 10.7-24 24s10.7 19 24 19 24-5.7 24-19-10.7-24-24-24Z" fill="url(#body)"/>
  <circle cx="32" cy="40" r="12" fill="#fff3e9" opacity=".95"/>
  <path d="M32 29v11l7 4" fill="none" stroke="#c85428" stroke-linecap="round" stroke-linejoin="round" stroke-width="3.5"/>
</svg>
